<?xml version="1.0" encoding="UTF-8" standalone="no"?>
<svg
   xmlns:dc="http://purl.org/dc/elements/1.1/"
   xmlns:cc="http://creativecommons.org/ns#"
   xmlns:rdf="http://www.w3.org/1999/02/22-rdf-syntax-ns#"
   xmlns:svg="http://www.w3.org/2000/svg"
   xmlns="http://www.w3.org/2000/svg"
   xmlns:sodipodi="http://sodipodi.sourceforge.net/DTD/sodipodi-0.dtd"
   xmlns:inkscape="http://www.inkscape.org/namespaces/inkscape"
   version="1.1"
   id="Ebene_1"
   inkscape:version="0.48.5 r10040"
   sodipodi:docname="WLX.svg"
   x="0px"
   y="0px"
   width="300px"
   height="300px"
   viewBox="0 0 300 300"
   enable-background="new 0 0 300 300"
   xml:space="preserve"><metadata
     id="metadata26"><rdf:RDF><cc:Work
         rdf:about=""><dc:format>image/svg+xml</dc:format><dc:type
           rdf:resource="http://purl.org/dc/dcmitype/StillImage" /><dc:title>Wiki Loves Jurytool</dc:title><dc:creator><cc:Agent><dc:title>Ruben Demus</dc:title></cc:Agent></dc:creator><cc:license
           rdf:resource="http://creativecommons.org/licenses/by-sa/3.0/" /></cc:Work><cc:License
         rdf:about="http://creativecommons.org/licenses/by-sa/3.0/"><cc:permits
           rdf:resource="http://creativecommons.org/ns#Reproduction" /><cc:permits
           rdf:resource="http://creativecommons.org/ns#Distribution" /><cc:requires
           rdf:resource="http://creativecommons.org/ns#Notice" /><cc:requires
           rdf:resource="http://creativecommons.org/ns#Attribution" /><cc:permits
           rdf:resource="http://creativecommons.org/ns#DerivativeWorks" /><cc:requires
           rdf:resource="http://creativecommons.org/ns#ShareAlike" /></cc:License></rdf:RDF></metadata><defs
     id="defs24" /><title
     id="title3001">Wiki Loves Jurytool</title><sodipodi:namedview
     id="namedview42"
     objecttolerance="10"
     guidetolerance="10"
     pagecolor="#ffffff"
     bordercolor="#666666"
     borderopacity="1"
     inkscape:window-width="1917"
     gridtolerance="10"
     inkscape:zoom="3.1466667"
     inkscape:pageopacity="0"
     inkscape:pageshadow="2"
     inkscape:window-height="1158"
     inkscape:cy="147.81069"
     showgrid="false"
     inkscape:cx="165.31718"
     inkscape:window-x="0"
     inkscape:window-y="0"
     inkscape:window-maximized="0"
     inkscape:current-layer="g7" /><g
     id="g3"><path
       id="path5449"
       sodipodi:nodetypes="sssss"
       inkscape:connector-curvature="0"
       fill="#AEA6D2"
       d="M150.5,14.5   c-74.559,0-135,60.441-135,135c0,74.559,60.441,135,135,135c74.559,0,135-60.441,135-135C285.5,74.941,225.059,14.5,150.5,14.5z" /></g><g
     id="g7"><line
       fill="none"
       stroke="#797A7A"
       stroke-width="2"
       stroke-miterlimit="10"
       x1="189.035"
       y1="66.5"
       x2="128.418"
       y2="98.877"
       id="line9" /><line
       fill="none"
       stroke="#797A7A"
       stroke-width="2"
       stroke-miterlimit="10"
       x1="189.035"
       y1="66.5"
       x2="222.638"
       y2="143.682"
       id="line11" /><line
       fill="none"
       stroke="#797A7A"
       stroke-width="2"
       stroke-miterlimit="10"
       x1="222.638"
       y1="143.682"
       x2="128.418"
       y2="98.877"
       id="line13" /><line
       fill="none"
       stroke="#797A7A"
       stroke-width="2"
       stroke-miterlimit="10"
       x1="128.418"
       y1="98.877"
       x2="85.589"
       y2="214.843"
       id="line15" /><line
       fill="none"
       stroke="#797A7A"
       stroke-width="2"
       stroke-miterlimit="10"
       x1="222.638"
       y1="143.682"
       x2="158.727"
       y2="214.843"
       id="line17" /><polygon
       id="polygon18_1_"
       fill="#FEF180"
       stroke="#797A7A"
       stroke-width="2"
       stroke-miterlimit="10"
       points="188.345,94.138    181.639,79.046 165.406,76.017 177.684,64.976 175.55,48.601 189.845,56.867 204.759,49.777 201.314,65.926 212.666,77.919    196.244,79.635  " /><polygon
       id="polygon18_2_"
       fill="#FEF180"
       stroke="#797A7A"
       stroke-width="2"
       stroke-miterlimit="10"
       points="127.728,121.646    121.022,106.554 104.789,103.524 117.066,92.483 114.933,76.108 129.228,84.374 144.141,77.285 140.697,93.434 152.048,105.426    135.626,107.143  " /><polygon
       id="polygon18_3_"
       fill="#FEF180"
       stroke="#797A7A"
       stroke-width="2"
       stroke-miterlimit="10"
       points="221.947,166.45    215.241,151.36 199.008,148.329 211.286,137.287 209.152,120.913 223.447,129.179 238.361,122.089 234.917,138.238    246.268,150.231 229.846,151.948  " /><polygon
       id="polygon18_4_"
       fill="#FEF180"
       stroke="#797A7A"
       stroke-width="2"
       stroke-miterlimit="10"
       points="158.035,237.61    151.33,222.521 135.097,219.491 147.375,208.448 145.241,192.073 159.535,200.339 174.449,193.251 171.006,209.397    182.356,221.394 165.935,223.108  " /><polygon
       id="polygon18_5_"
       fill="#FEF180"
       stroke="#797A7A"
       stroke-width="2"
       stroke-miterlimit="10"
       points="84.897,237.61    78.192,222.521 61.959,219.491 74.236,208.448 72.103,192.073 86.397,200.339 101.312,193.251 97.867,209.397 109.219,221.394    92.797,223.108  " /></g></svg>